# xmcd
# 
# Track frame offsets:
#     150
#     16900
#     34518
#     54782
#     71171
#     88830
#     111629
#     131199
#     151674
#     169189
#     183769
#     189947
#     207755
#     228259
# 
# Disc length: 3509
# 
# Revision: 2
# Processed by: cddbd v1.5.2PL0 Copyright (c) Steve Scherf et al.
# Submitted via: fre:ac v1.0.27
# 
DISCID=b10db30e
DTITLE=Chaka Khan - What Cha' Gonna Do For Me
DYEAR=1981
DGENRE=R&B
TTITLE0=We Can Work It Out
TTITLE1=What Cha' Gonna Do For Me
TTITLE2=I Know You, I Live You
TTITLE3=Any Old Sunday
TTITLE4=We Got Each Other
TTITLE5=And The Melody Still Lingers On (Night In Tunisia)
TTITLE6=Night Moods
TTITLE7=Heed The Warning
TTITLE8=Father He Said
TTITLE9=Fate
TTITLE10=I Know You, I Live You (Reprise)
TTITLE11=Only Once
TTITLE12=Lover's Touch
TTITLE13=I Know You, I Live You (Remix)
EXTD=
EXTT0=
EXTT1=
EXTT2=
EXTT3=
EXTT4=
EXTT5=
EXTT6=
EXTT7=
EXTT8=
EXTT9=
EXTT10=
EXTT11=
EXTT12=
EXTT13=
PLAYORDER=
